<svg xmlns="http://www.w3.org/2000/svg" viewBox="0 0 24 24" width="24" height="24">
  <defs>
    <linearGradient id="grad" x1="0%" y1="0%" x2="100%" y2="100%">
      <stop offset="0%" style="stop-color:#1a73e8;stop-opacity:1" />
      <stop offset="100%" style="stop-color:#0d47a1;stop-opacity:1" />
    </linearGradient>
  </defs>
  <rect width="24" height="24" rx="6" fill="white"/>
  <path d="M4,4h6v6H4V4M14,4h6v6h-6V4M4,14h6v6H4V14M17,14h3v3h-3V14M17,17h3v3h-3V17M14,14h3v3h-3V14M14,17h3v3h-3V17M20,17h1v3h-1V17M20,14h1v3h-1V14" fill="url(#grad)"/>
</svg> 